# xmcd
#
# Track frame offsets: 
#        150
#        13341
#        33211
#        60977
#        83056
#        95935
#        116551
#        133089
#        145845
#        164299
#        186668
#        207216
#        226774
#        248507
#        260409
#        277840
#        300542
#
# Disc length: 4190 seconds
#
# Revision: 8
# Processed by: cddbd v1.5.2PL0 Copyright (c) Steve Scherf et al.
# Submitted via: ExactAudioCopy v0.99pb4
#
DISCID=e5105c11
DTITLE=Gary Moore - The Best Of The Blues (Disc-1)
DYEAR=2002
DGENRE=Blues
TTITLE0=Walking By Myself
TTITLE1=Oh Pretty Woman (feat.Albert King)
TTITLE2=Still Got The Blues (Full Version)
TTITLE3=Separate Ways
TTITLE4=Since I Met You Baby (feat.B.B.King)
TTITLE5=Story Of The Blues (Single Edit)
TTITLE6=All Your Love
TTITLE7=Too Tired (feat.Albert Collins)
TTITLE8=Need Your Love So Bad (Single Edit)
TTITLE9=Midnight Blues
TTITLE10=King Of The Blues
TTITLE11=Jumpin' At Shadows
TTITLE12=Texas Strut
TTITLE13=Moving On
TTITLE14=Stop Messin' Around
TTITLE15=Parisienne Walkways-'93
TTITLE16=The Supernatural
EXTD=YEAR: 2002
EXTT0=
EXTT1=
EXTT2=
EXTT3=
EXTT4=
EXTT5=
EXTT6=
EXTT7=
EXTT8=
EXTT9=
EXTT10=
EXTT11=
EXTT12=
EXTT13=
EXTT14=
EXTT15=
EXTT16=
PLAYORDER=
